  0
SECTION
  2
HEADER
  9
$ACADVER
  1
AC1015
  9
$ACADMAINTVER
 70
     6
  9
$DWGCODEPAGE
  3
ANSI_1252
  9
$INSBASE
 10
0.0
 20
0.0
 30
0.0
  9
$EXTMIN
 10
-203.9244642897
 20
-200.0057450183
 30
0.0
  9
$EXTMAX
 10
2.4960928652
 20
0.0803031166
 30
0.0
  9
$LIMMIN
 10
0.0
 20
0.0
  9
$LIMMAX
 10
420.0
 20
297.0
  9
$ORTHOMODE
 70
     0
  9
$REGENMODE
 70
     1
  9
$FILLMODE
 70
     1
  9
$QTEXTMODE
 70
     0
  9
$MIRRTEXT
 70
     1
  9
$LTSCALE
 40
1.0
  9
$ATTMODE
 70
     1
  9
$TEXTSIZE
 40
3.5
  9
$TRACEWID
 40
1.0
  9
$TEXTSTYLE
  7
Standard
  9
$CLAYER
  8
0
  9
$CELTYPE
  6
ByLayer
  9
$CECOLOR
 62
   256
  9
$CELTSCALE
 40
1.0
  9
$DISPSILH
 70
     0
  9
$DIMSCALE
 40
1.0
  9
$DIMASZ
 40
3.556
  9
$DIMEXO
 40
1.0
  9
$DIMDLI
 40
3.75
  9
$DIMRND
 40
0.0
  9
$DIMDLE
 40
0.0
  9
$DIMEXE
 40
1.0
  9
$DIMTP
 40
0.0
  9
$DIMTM
 40
0.0
  9
$DIMTXT
 40
3.5
  9
$DIMCEN
 40
2.5
  9
$DIMTSZ
 40
0.0
  9
$DIMTOL
 70
     0
  9
$DIMLIM
 70
     0
  9
$DIMTIH
 70
     1
  9
$DIMTOH
 70
     1
  9
$DIMSE1
 70
     0
  9
$DIMSE2
 70
     0
  9
$DIMTAD
 70
     1
  9
$DIMZIN
 70
     0
  9
$DIMBLK
  1

  9
$DIMASO
 70
     1
  9
$DIMSHO
 70
     1
  9
$DIMPOST
  1

  9
$DIMAPOST
  1

  9
$DIMALT
 70
     0
  9
$DIMALTD
 70
     3
  9
$DIMALTF
 40
0.0393700787
  9
$DIMLFAC
 40
1.0
  9
$DIMTOFL
 70
     1
  9
$DIMTVP
 40
0.0
  9
$DIMTIX
 70
     0
  9
$DIMSOXD
 70
     0
  9
$DIMSAH
 70
     0
  9
$DIMBLK1
  1

  9
$DIMBLK2
  1

  9
$DIMSTYLE
  2
ISO-25
  9
$DIMCLRD
 70
     0
  9
$DIMCLRE
 70
     0
  9
$DIMCLRT
 70
     0
  9
$DIMTFAC
 40
1.0
  9
$DIMGAP
 40
1.524
  9
$DIMJUST
 70
     0
  9
$DIMSD1
 70
     0
  9
$DIMSD2
 70
     0
  9
$DIMTOLJ
 70
     0
  9
$DIMTZIN
 70
     0
  9
$DIMALTZ
 70
     0
  9
$DIMALTTZ
 70
     0
  9
$DIMUPT
 70
     0
  9
$DIMDEC
 70
     2
  9
$DIMTDEC
 70
     2
  9
$DIMALTU
 70
     2
  9
$DIMALTTD
 70
     3
  9
$DIMTXSTY
  7
Standard
  9
$DIMAUNIT
 70
     0
  9
$DIMADEC
 70
     2
  9
$DIMALTRND
 40
0.0
  9
$DIMAZIN
 70
     0
  9
$DIMDSEP
 70
    44
  9
$DIMATFIT
 70
     3
  9
$DIMFRAC
 70
     0
  9
$DIMLDRBLK
  1

  9
$DIMLUNIT
 70
     2
  9
$DIMLWD
 70
    -2
  9
$DIMLWE
 70
    -2
  9
$DIMTMOVE
 70
     0
  9
$LUNITS
 70
     2
  9
$LUPREC
 70
     2
  9
$SKETCHINC
 40
1.0
  9
$FILLETRAD
 40
10.0
  9
$AUNITS
 70
     0
  9
$AUPREC
 70
     2
  9
$MENU
  1
.
  9
$ELEVATION
 40
0.0
  9
$PELEVATION
 40
0.0
  9
$THICKNESS
 40
0.0
  9
$LIMCHECK
 70
     0
  9
$CHAMFERA
 40
0.0
  9
$CHAMFERB
 40
0.0
  9
$CHAMFERC
 40
0.0
  9
$CHAMFERD
 40
0.0
  9
$SKPOLY
 70
     0
  9
$TDCREATE
 40
2458099.922783357
  9
$TDUCREATE
 40
2458099.839450023
  9
$TDUPDATE
 40
2458099.923084641
  9
$TDUUPDATE
 40
2458099.839751308
  9
$TDINDWG
 40
0.0000000116
  9
$TDUSRTIMER
 40
0.0000000116
  9
$USRTIMER
 70
     1
  9
$ANGBASE
 50
0.0
  9
$ANGDIR
 70
     0
  9
$PDMODE
 70
     0
  9
$PDSIZE
 40
-1.0
  9
$PLINEWID
 40
0.0
  9
$SPLFRAME
 70
     0
  9
$SPLINETYPE
 70
     6
  9
$SPLINESEGS
 70
     8
  9
$HANDSEED
  5
219
  9
$SURFTAB1
 70
     6
  9
$SURFTAB2
 70
     6
  9
$SURFTYPE
 70
     6
  9
$SURFU
 70
     6
  9
$SURFV
 70
     6
  9
$UCSBASE
  2

  9
$UCSNAME
  2

  9
$UCSORG
 10
0.0
 20
0.0
 30
0.0
  9
$UCSXDIR
 10
1.0
 20
0.0
 30
0.0
  9
$UCSYDIR
 10
0.0
 20
1.0
 30
0.0
  9
$UCSORTHOREF
  2

  9
$UCSORTHOVIEW
 70
     0
  9
$UCSORGTOP
 10
0.0
 20
0.0
 30
0.0
  9
$UCSORGBOTTOM
 10
0.0
 20
0.0
 30
0.0
  9
$UCSORGLEFT
 10
0.0
 20
0.0
 30
0.0
  9
$UCSORGRIGHT
 10
0.0
 20
0.0
 30
0.0
  9
$UCSORGFRONT
 10
0.0
 20
0.0
 30
0.0
  9
$UCSORGBACK
 10
0.0
 20
0.0
 30
0.0
  9
$PUCSBASE
  2

  9
$PUCSNAME
  2

  9
$PUCSORG
 10
0.0
 20
0.0
 30
0.0
  9
$PUCSXDIR
 10
1.0
 20
0.0
 30
0.0
  9
$PUCSYDIR
 10
0.0
 20
1.0
 30
0.0
  9
$PUCSORTHOREF
  2

  9
$PUCSORTHOVIEW
 70
     0
  9
$PUCSORGTOP
 10
0.0
 20
0.0
 30
0.0
  9
$PUCSORGBOTTOM
 10
0.0
 20
0.0
 30
0.0
  9
$PUCSORGLEFT
 10
0.0
 20
0.0
 30
0.0
  9
$PUCSORGRIGHT
 10
0.0
 20
0.0
 30
0.0
  9
$PUCSORGFRONT
 10
0.0
 20
0.0
 30
0.0
  9
$PUCSORGBACK
 10
0.0
 20
0.0
 30
0.0
  9
$USERI1
 70
     0
  9
$USERI2
 70
     0
  9
$USERI3
 70
     0
  9
$USERI4
 70
     0
  9
$USERI5
 70
     0
  9
$USERR1
 40
0.0
  9
$USERR2
 40
0.0
  9
$USERR3
 40
0.0
  9
$USERR4
 40
0.0
  9
$USERR5
 40
0.0
  9
$WORLDVIEW
 70
     1
  9
$SHADEDGE
 70
     3
  9
$SHADEDIF
 70
    70
  9
$TILEMODE
 70
     1
  9
$MAXACTVP
 70
    64
  9
$PINSBASE
 10
0.0
 20
0.0
 30
0.0
  9
$PLIMCHECK
 70
     0
  9
$PEXTMIN
 10
1.0000000000E+20
 20
1.0000000000E+20
 30
1.0000000000E+20
  9
$PEXTMAX
 10
-1.0000000000E+20
 20
-1.0000000000E+20
 30
-1.0000000000E+20
  9
$PLIMMIN
 10
0.0
 20
0.0
  9
$PLIMMAX
 10
420.0
 20
297.0
  9
$UNITMODE
 70
     0
  9
$VISRETAIN
 70
     1
  9
$PLINEGEN
 70
     0
  9
$PSLTSCALE
 70
     1
  9
$TREEDEPTH
 70
  3020
  9
$CMLSTYLE
  2
Standard
  9
$CMLJUST
 70
     0
  9
$CMLSCALE
 40
20.0
  9
$PROXYGRAPHICS
 70
     1
  9
$MEASUREMENT
 70
     1
  9
$CELWEIGHT
370
    -1
  9
$ENDCAPS
280
     0
  9
$JOINSTYLE
280
     0
  9
$LWDISPLAY
290
     1
  9
$INSUNITS
 70
     4
  9
$HYPERLINKBASE
  1

  9
$STYLESHEET
  1

  9
$XEDIT
290
     1
  9
$CEPSNTYPE
380
     0
  9
$PSTYLEMODE
290
     1
  9
$FINGERPRINTGUID
  2
{0E112151-B062-45C4-A4BF-F8764FCE9230}
  9
$VERSIONGUID
  2
{FAEB1C32-E019-11D5-929B-00C0DF256EC4}
  9
$EXTNAMES
290
     1
  9
$PSVPSCALE
 40
0.0
  9
$OLESTARTUP
290
     0
  0
ENDSEC
  0
SECTION
  2
CLASSES
  0
CLASS
  1
ACDBDICTIONARYWDFLT
  2
AcDbDictionaryWithDefault
  3
ObjectDBX Classes
 90
        0
280
     0
281
     0
  0
CLASS
  1
VISUALSTYLE
  2
AcDbVisualStyle
  3
ObjectDBX Classes
 90
     4095
280
     0
281
     0
  0
CLASS
  1
MATERIAL
  2
AcDbMaterial
  3
ObjectDBX Classes
 90
     1153
280
     0
281
     0
  0
CLASS
  1
SCALE
  2
AcDbScale
  3
ObjectDBX Classes
 90
     1153
280
     0
281
     0
  0
CLASS
  1
TABLESTYLE
  2
AcDbTableStyle
  3
ObjectDBX Classes
 90
     4095
280
     0
281
     0
  0
CLASS
  1
MLEADERSTYLE
  2
AcDbMLeaderStyle
  3
ACDB_MLEADERSTYLE_CLASS
 90
     4095
280
     0
281
     0
  0
CLASS
  1
SUN
  2
AcDbSun
  3
SCENEOE
 90
     1153
280
     0
281
     0
  0
CLASS
  1
ACDBPLACEHOLDER
  2
AcDbPlaceHolder
  3
ObjectDBX Classes
 90
        0
280
     0
281
     0
  0
CLASS
  1
LAYOUT
  2
AcDbLayout
  3
ObjectDBX Classes
 90
        0
280
     0
281
     0
  0
ENDSEC
  0
SECTION
  2
TABLES
  0
TABLE
  2
VPORT
  5
8
330
0
100
AcDbSymbolTable
 70
     1
  0
VPORT
  5
29
330
8
100
AcDbSymbolTableRecord
100
AcDbViewportTableRecord
  2
*Active
 70
     0
 10
0.0
 20
0.0
 11
1.0
 21
1.0
 12
-100.7141857122
 22
-99.9627209508
 13
0.0
 23
0.0
 14
10.0
 24
10.0
 15
10.0
 25
10.0
 16
0.0
 26
0.0
 36
1.0
 17
0.0
 27
0.0
 37
0.0
 40
204.0877690977
 41
1.0316589241
 42
50.0
 43
0.0
 44
0.0
 50
0.0
 51
0.0
 71
     0
 72
   100
 73
     1
 74
     3
 75
     0
 76
     0
 77
     0
 78
     0
281
     0
 65
     1
110
0.0
120
0.0
130
0.0
111
1.0
121
0.0
131
0.0
112
0.0
122
1.0
132
0.0
 79
     0
146
0.0
  0
ENDTAB
  0
TABLE
  2
LTYPE
  5
5
330
0
100
AcDbSymbolTable
 70
     6
  0
LTYPE
  5
14
330
5
100
AcDbSymbolTableRecord
100
AcDbLinetypeTableRecord
  2
ByBlock
 70
     0
  3

 72
    65
 73
     0
 40
0.0
  0
LTYPE
  5
15
330
5
100
AcDbSymbolTableRecord
100
AcDbLinetypeTableRecord
  2
ByLayer
 70
     0
  3

 72
    65
 73
     0
 40
0.0
  0
LTYPE
  5
16
330
5
100
AcDbSymbolTableRecord
100
AcDbLinetypeTableRecord
  2
Continuous
 70
     0
  3
Solid line
 72
    65
 73
     0
 40
0.0
  0
LTYPE
  5
6E
330
5
100
AcDbSymbolTableRecord
100
AcDbLinetypeTableRecord
  2
HIDDEN
 70
     0
  3
Hidden __ __ __ __ __ __ __ __ __ __ __ __ __ __
 72
    65
 73
     2
 40
1.905
 49
1.27
 74
     0
 49
-0.635
 74
     0
  0
LTYPE
  5
6F
330
5
100
AcDbSymbolTableRecord
100
AcDbLinetypeTableRecord
  2
PHANTOM
 70
     0
  3
Phantom ______  __  __  ______  __  __  ______
 72
    65
 73
     6
 40
12.7
 49
6.35
 74
     0
 49
-1.27
 74
     0
 49
1.27
 74
     0
 49
-1.27
 74
     0
 49
1.27
 74
     0
 49
-1.27
 74
     0
  0
LTYPE
  5
70
330
5
100
AcDbSymbolTableRecord
100
AcDbLinetypeTableRecord
  2
CENTER
 70
     0
  3
Center ____ _ ____ _ ____ _ ____ _ ____ _ ____
 72
    65
 73
     4
 40
10.16
 49
6.35
 74
     0
 49
-1.27
 74
     0
 49
1.27
 74
     0
 49
-1.27
 74
     0
  0
LTYPE
  5
71
330
5
100
AcDbSymbolTableRecord
100
AcDbLinetypeTableRecord
  2
CENTERX2
 70
     0
  3
Center (2x) ________  __  ________  __  _____
 72
    65
 73
     4
 40
20.32
 49
12.7
 74
     0
 49
-2.54
 74
     0
 49
2.54
 74
     0
 49
-2.54
 74
     0
  0
LTYPE
  5
72
330
5
100
AcDbSymbolTableRecord
100
AcDbLinetypeTableRecord
  2
DOT2
 70
     0
  3
Dot (.5x) ........................................
 72
    65
 73
     2
 40
0.635
 49
0.0
 74
     0
 49
-0.635
 74
     0
  0
ENDTAB
  0
TABLE
  2
LAYER
  5
2
330
0
100
AcDbSymbolTable
 70
     1
  0
LAYER
  5
10
330
2
100
AcDbSymbolTableRecord
100
AcDbLayerTableRecord
  2
0
 70
     0
 62
     7
  6
Continuous
370
    -3
390
F
  0
ENDTAB
  0
TABLE
  2
STYLE
  5
3
330
0
100
AcDbSymbolTable
 70
     1
  0
STYLE
  5
11
330
3
100
AcDbSymbolTableRecord
100
AcDbTextStyleTableRecord
  2
Standard
 70
     0
 40
0.0
 41
1.0
 50
0.0
 71
     0
 42
3.5
  3
txt
  4

  0
ENDTAB
  0
TABLE
  2
VIEW
  5
6
330
0
100
AcDbSymbolTable
 70
     0
  0
ENDTAB
  0
TABLE
  2
UCS
  5
7
330
0
100
AcDbSymbolTable
 70
     0
  0
ENDTAB
  0
TABLE
  2
APPID
  5
9
330
0
100
AcDbSymbolTable
 70
     1
  0
APPID
  5
12
330
9
100
AcDbSymbolTableRecord
100
AcDbRegAppTableRecord
  2
ACAD
 70
     0
  0
ENDTAB
  0
TABLE
  2
DIMSTYLE
  5
A
330
0
100
AcDbSymbolTable
 70
     1
100
AcDbDimStyleTable
  0
DIMSTYLE
105
27
330
A
100
AcDbSymbolTableRecord
100
AcDbDimStyleTableRecord
  2
ISO-25
 70
     0
 41
2.5
 42
0.625
 43
3.75
 44
1.25
 73
     0
 74
     0
 77
     1
 78
     8
140
2.5
141
2.5
143
0.0393700787
147
0.625
171
     3
172
     1
178
     0
271
     2
272
     2
274
     3
278
    44
283
     0
284
     8
340
11
  0
ENDTAB
  0
TABLE
  2
BLOCK_RECORD
  5
1
330
0
100
AcDbSymbolTable
 70
     1
  0
BLOCK_RECORD
  5
1F
330
1
100
AcDbSymbolTableRecord
100
AcDbBlockTableRecord
  2
*Model_Space
340
22
  0
BLOCK_RECORD
  5
1B
330
1
100
AcDbSymbolTableRecord
100
AcDbBlockTableRecord
  2
*Paper_Space
340
1E
  0
BLOCK_RECORD
  5
23
330
1
100
AcDbSymbolTableRecord
100
AcDbBlockTableRecord
  2
*Paper_Space0
340
26
  0
ENDTAB
  0
ENDSEC
  0
SECTION
  2
BLOCKS
  0
BLOCK
  5
20
330
1F
100
AcDbEntity
  8
0
100
AcDbBlockBegin
  2
*Model_Space
 70
     0
 10
0.0
 20
0.0
 30
0.0
  3
*Model_Space
  1

  0
ENDBLK
  5
21
330
1F
100
AcDbEntity
  8
0
100
AcDbBlockEnd
  0
BLOCK
  5
1C
330
1B
100
AcDbEntity
 67
     1
  8
0
100
AcDbBlockBegin
  2
*Paper_Space
 70
     0
 10
0.0
 20
0.0
 30
0.0
  3
*Paper_Space
  1

  0
ENDBLK
  5
1D
330
1B
100
AcDbEntity
 67
     1
  8
0
100
AcDbBlockEnd
  0
BLOCK
  5
24
330
23
100
AcDbEntity
  8
0
100
AcDbBlockBegin
  2
*Paper_Space0
 70
     0
 10
0.0
 20
0.0
 30
0.0
  3
*Paper_Space0
  1

  0
ENDBLK
  5
25
330
23
100
AcDbEntity
  8
0
100
AcDbBlockEnd
  0
ENDSEC
  0
SECTION
  2
ENTITIES
  0
LWPOLYLINE
  5
75
330
1F
100
AcDbEntity
  8
0
  6
Continuous
 62
     7
100
AcDbPolyline
 90
       24
 70
   128
 43
0.0
 10
-63.6897536902
 20
-132.3591082889
 10
-63.6620007514
 20
-121.6129906203
 10
-63.6620007514
 20
-121.6129906203
 10
-61.7112081737
 20
-121.6180082155
 10
-61.7112081737
 20
-121.6180082155
 10
-61.7345778596
 20
-130.6545161727
 10
-61.7345778596
 20
-130.6545161727
 10
-55.8822001264
 20
-130.6695689583
 10
-55.8822001264
 20
-130.6695689583
 10
-55.8588304405
 20
-121.6330610011
 10
-55.8588304405
 20
-121.6330610011
 10
-53.9080378628
 20
-121.6380785963
 10
-53.9080378628
 20
-121.6380785963
 10
-53.9314075486
 20
-130.6745865535
 10
-53.9314075486
 20
-130.6745865535
 10
-46.6159353822
 20
-130.6934025355
 10
-46.6159353822
 20
-130.6934025355
 10
-46.5925656963
 20
-121.6568945783
 10
-46.5925656963
 20
-121.6568945783
 10
-44.6417731186
 20
-121.6619121735
 10
-44.6417731186
 20
-121.6619121735
 10
-44.6695640964
 20
-132.4080297443
 10
-44.6695640964
 20
-132.4080297443
 10
-63.6897917292
 20
-132.359108191
  0
LWPOLYLINE
  5
76
330
1F
100
AcDbEntity
  8
0
  6
Continuous
 62
     7
100
AcDbPolyline
 90
      107
 70
   128
 43
0.0
 10
-63.6531201286
 20
-118.1937714911
 10
-63.6487368757
 20
-116.4841617797
 10
-63.6487368757
 20
-116.4841617797
 10
-52.2526028913
 20
-116.5134735517
 10
-52.2526028913
 20
-116.5134735517
 10
-51.7687148886
 20
-116.5147181505
 10
-51.3343488598
 20
-116.5120192565
 10
-50.9456946631
 20
-116.5053866698
 10
-50.6065723091
 20
-116.4986266832
 10
-50.3131617872
 20
-116.4879330038
 10
-50.0692831081
 20
-116.4771119246
 10
-49.8711162611
 20
-116.4623571525
 10
-49.722471388
 20
-116.4436588877
 10
-49.722471388
 20
-116.4436588877
 10
-49.1849946769
 20
-116.3496383642
 10
-48.6969313811
 20
-116.2096973262
 10
-48.2506513482
 20
-116.0200392807
 10
-47.8537945996
 20
-115.7882768136
 10
-47.4910712235
 20
-115.4953686604
 10
-47.1624614819
 20
-115.1336826353
 10
-46.8603352225
 20
-114.6994222454
 10
-46.5923324667
 20
-114.2002000765
 10
-46.3699527223
 20
-113.6626993789
 10
-46.208535246
 20
-113.1250418813
 10
-46.1118803105
 20
-112.5834016911
 10
-46.0799977848
 20
-112.041594901
 10
-46.0799977848
 20
-112.041594901
 10
-46.1054647646
 20
-111.5759629688
 10
-46.1766731833
 20
-111.1178456225
 10
-46.3012531934
 20
-110.671039355
 10
-46.4753847842
 20
-110.2317378734
 10
-46.691487148
 20
-109.8152251492
 10
-46.9457896189
 20
-109.436775354
 10
-47.2420924697
 20
-109.0925625949
 10
-47.5727754169
 20
-108.7826064718
 10
-47.9416584712
 20
-108.5107132777
 10
-48.3487317635
 20
-108.2730669197
 10
-48.7940249009
 20
-108.0811156765
 10
-49.2775082765
 20
-107.9234112693
 10
-49.2775082765
 20
-107.9234112693
 10
-49.4793273619
 20
-107.8770987551
 10
-49.7306980281
 20
-107.8382910269
 10
-50.031610406
 20
-107.8031719916
 10
-50.3744540811
 20
-107.7755773422
 10
-50.766839468
 20
-107.7516713859
 10
-51.2087764356
 20
-107.7352702154
 10
-51.6964548421
 20
-107.7263836308
 10
-52.2298648186
 20
-107.7211955393
 10
-52.2298648186
 20
-107.7211955393
 10
-63.6259988029
 20
-107.6918837673
 10
-63.6259988029
 20
-107.6918837673
 10
-63.621577511
 20
-105.9822741537
 10
-63.621577511
 20
-105.9822741537
 10
-52.1340001246
 20
-106.0118211255
 10
-52.1340001246
 20
-106.0118211255
 10
-51.5129667567
 20
-106.0210507098
 10
-50.9224539987
 20
-106.0454662656
 10
-50.3586517087
 20
-106.0850775931
 10
-49.8291801704
 20
-106.1398650922
 10
-49.3302292419
 20
-106.209838563
 10
-48.8617890543
 20
-106.2911819125
 10
-48.4238793455
 20
-106.3915273265
 10
-48.0164902465
 20
-106.5070587121
 10
-47.6282012011
 20
-106.6416215622
 10
-47.2552415433
 20
-106.8104900483
 10
-46.8937813934
 20
-107.0060417847
 10
-46.5476407622
 20
-107.2320830642
 10
-46.2130193769
 20
-107.4924397797
 10
-45.8898974995
 20
-107.7794797454
 10
-45.5820951407
 20
-108.0970092543
 10
-45.2858021589
 20
-108.4450381063
 10
-45.0124292413
 20
-108.8159047157
 10
-44.777207086
 20
-109.2057537897
 10
-44.580145562
 20
-109.618401421
 10
-44.4136046479
 20
-110.046235024
 10
-44.2890246377
 20
-110.4930412915
 10
-44.1987852482
 20
-110.9588398235
 10
-44.1467064899
 20
-111.447436913
 10
-44.1289584832
 20
-111.9512101741
 10
-44.1289584832
 20
-111.9512101741
 10
-44.1494303215
 20
-112.5006785499
 10
-44.2003240801
 20
-113.0271719685
 10
-44.2892699115
 20
-113.5344869227
 10
-44.4086475321
 20
-114.0226430126
 10
-44.5660772255
 20
-114.4916206381
 10
-44.7577389809
 20
-114.9376135064
 10
-44.9798325256
 20
-115.3644475103
 10
-45.239978143
 20
-115.7721030499
 10
-45.5267256701
 20
-116.1529773393
 10
-45.836245227
 20
-116.4994479928
 10
-46.1647365411
 20
-116.8153409033
 10
-46.5198100268
 20
-117.0968203778
 10
-46.8938454007
 20
-117.3439060164
 10
-47.2944728153
 20
-117.560394312
 10
-47.714062118
 20
-117.7424887716
 10
-48.1564333196
 20
-117.8939956882
 10
-48.1564333196
 20
-117.8939956882
 10
-48.4614519079
 20
-117.9733496395
 10
-48.8235930157
 20
-118.0411083124
 10
-49.2428566429
 20
-118.0972717067
 10
-49.7154425167
 20
-118.1456657154
 10
-50.245141041
 20
-118.1786483527
 10
-50.828161812
 20
-118.2038616044
 10
-51.4683149713
 20
-118.2212956704
 10
-52.1655807812
 20
-118.223318365
 10
-52.1655807812
 20
-118.223318365
 10
-63.6531581676
 20
-118.1937713932
  0
LWPOLYLINE
  5
77
330
1F
100
AcDbEntity
  8
0
  6
Continuous
 62
     7
100
AcDbPolyline
 90
       20
 70
   128
 43
0.0
 10
-64.0735006575
 20
-92.1629475115
 10
-64.0726420938
 20
-91.8156829572
 10
-64.0726420938
 20
-91.8156829572
 10
-50.9047921942
 20
-91.8495517248
 10
-50.9047921942
 20
-91.8495517248
 10
-50.899107676
 20
-89.6514822217
 10
-50.899107676
 20
-89.6514822217
 10
-48.9483150983
 20
-89.6564998169
 10
-48.9483150983
 20
-89.6564998169
 10
-48.9539996165
 20
-91.85456932
 10
-48.9539996165
 20
-91.85456932
 10
-44.5647163166
 20
-91.8658589092
 10
-44.5647163166
 20
-91.8658589092
 10
-44.5691376085
 20
-93.5754685227
 10
-44.5691376085
 20
-93.5754685227
 10
-48.9584209084
 20
-93.5641789335
 10
-48.9584209084
 20
-93.5641789335
 10
-48.9817905942
 20
-102.6006868907
 10
-48.9817905942
 20
-102.6006868907
 10
-64.0735401688
 20
-92.1629474099
  0
LWPOLYLINE
  5
78
330
1F
100
AcDbEntity
  8
0
  6
Continuous
 62
     7
100
AcDbPolyline
 90
        6
 70
   128
 43
0.0
 10
-50.9091839691
 20
-93.5591614142
 10
-59.1696008074
 20
-93.5379149586
 10
-59.1696008074
 20
-93.5379149586
 10
-50.9238984914
 20
-99.2375075547
 10
-50.9238984914
 20
-99.2375075547
 10
-50.9092134861
 20
-93.5591613383
  0
LWPOLYLINE
  5
79
330
1F
100
AcDbEntity
  8
0
  6
Continuous
 62
     7
100
AcDbPolyline
 90
       26
 70
   128
 43
0.0
 10
-44.552705289
 20
-87.2254899849
 10
-63.5664396585
 20
-84.6617631922
 10
-63.5664396585
 20
-84.6617631922
 10
-63.5658080453
 20
-84.4175332474
 10
-63.5658080453
 20
-84.4175332474
 10
-47.9391275069
 20
-76.5927065683
 10
-47.9391275069
 20
-76.5927065683
 10
-63.5251775569
 20
-68.7066788303
 10
-63.5251775569
 20
-68.7066788303
 10
-63.5245360748
 20
-68.4586327926
 10
-63.5245360748
 20
-68.4586327926
 10
-44.4977653247
 20
-65.9774847615
 10
-44.4977653247
 20
-65.9774847615
 10
-44.5022063545
 20
-67.6947265608
 10
-44.5022063545
 20
-67.6947265608
 10
-58.1929528932
 20
-69.4836173946
 10
-58.1929528932
 20
-69.4836173946
 10
-44.5247075723
 20
-76.3954183439
 10
-44.5247075723
 20
-76.3954183439
 10
-44.5257043368
 20
-76.7808437256
 10
-44.5257043368
 20
-76.7808437256
 10
-58.2600675888
 20
-83.6488757925
 10
-58.2600675888
 20
-83.6488757925
 10
-44.5482647683
 20
-85.504432066
 10
-44.5482647683
 20
-85.504432066
 10
-44.5527156671
 20
-87.2254899582
  0
POINT
  5
7A
330
1F
100
AcDbEntity
  8
0
  6
Continuous
 62
     7
100
AcDbPoint
 10
1.9571694953
 20
-100.4598241739
 30
0.0
  0
POINT
  5
7B
330
1F
100
AcDbEntity
  8
0
  6
Continuous
 62
     7
100
AcDbPoint
 10
-44.5852437433
 20
-99.8033321149
 30
0.0
  0
CIRCLE
  5
86
330
1F
100
AcDbEntity
  8
0
  6
Continuous
 62
     7
370
    15
100
AcDbCircle
 10
-88.6486529526
 20
-99.7724585111
 30
0.0
 40
12.49428180248006
  0
LINE
  5
14E
330
1F
100
AcDbEntity
  8
0
  6
Continuous
 62
     7
370
    15
100
AcDbLine
 10
2.0047276891
 20
-190.005778775
 30
0.0
 11
1.978866364
 21
-200.0057450183
 31
0.0
  0
LINE
  5
14F
330
1F
100
AcDbEntity
  8
0
  6
Continuous
 62
     7
370
    15
100
AcDbLine
 10
1.6997347981
 20
-200.0037677481
 30
0.0
 11
1.978866364
 21
-200.0057450183
 31
0.0
  0
LINE
  5
150
330
1F
100
AcDbEntity
  8
0
  6
Continuous
 62
     7
370
    15
100
AcDbLine
 10
1.7255961231
 20
-190.0038015047
 30
0.0
 11
1.6997347981
 21
-200.0037677481
 31
0.0
  0
LINE
  5
151
330
1F
100
AcDbEntity
  8
0
  6
Continuous
 62
     7
370
    15
100
AcDbLine
 10
2.0047276891
 20
-190.005778775
 30
0.0
 11
1.7255961231
 21
-190.0038015047
 31
0.0
  0
LINE
  5
152
330
1F
100
AcDbEntity
  8
0
  6
Continuous
 62
     7
370
    15
100
AcDbLine
 10
-3.2407282822
 20
-179.9909949587
 30
0.0
 11
-3.2665896073
 21
-189.990961202
 31
0.0
  0
LINE
  5
153
330
1F
100
AcDbEntity
  8
0
  6
Continuous
 62
     7
370
    15
100
AcDbLine
 10
-3.2665896073
 20
-189.990961202
 30
0.0
 11
1.7255961231
 21
-190.0038015047
 31
0.0
  0
LINE
  5
154
330
1F
100
AcDbEntity
  8
0
  6
Continuous
 62
     7
370
    15
100
AcDbLine
 10
1.6997347981
 20
-200.0037677481
 30
0.0
 11
-31.2486910226
 21
-199.9190217503
 31
0.0
  0
LINE
  5
155
330
1F
100
AcDbEntity
  8
0
  6
Continuous
 62
     7
370
    15
100
AcDbLine
 10
-31.2486910226
 20
-199.9190217503
 30
0.0
 11
-44.1993740176
 21
-192.3856869828
 31
0.0
  0
LINE
  5
156
330
1F
100
AcDbEntity
  8
0
  6
Continuous
 62
     7
370
    15
100
AcDbLine
 10
-44.1993740176
 20
-192.3856869828
 30
0.0
 11
-41.6920828702
 21
-188.0619947323
 31
0.0
  0
LINE
  5
157
330
1F
100
AcDbEntity
  8
0
  6
Continuous
 62
     7
370
    15
100
AcDbLine
 10
-41.6920828702
 20
-188.0619947323
 30
0.0
 11
-50.3258715336
 21
-183.039771554
 31
0.0
  0
LINE
  5
158
330
1F
100
AcDbEntity
  8
0
  6
Continuous
 62
     7
370
    15
100
AcDbLine
 10
-50.3258715336
 20
-183.039771554
 30
0.0
 11
-52.833162681
 21
-187.3634638045
 31
0.0
  0
LINE
  5
159
330
1F
100
AcDbEntity
  8
0
  6
Continuous
 62
     7
370
    15
100
AcDbLine
 10
-52.833162681
 20
-187.3634638045
 30
0.0
 11
-61.4669513444
 21
-182.3412406262
 31
0.0
  0
LINE
  5
15A
330
1F
100
AcDbEntity
  8
0
  6
Continuous
 62
     7
370
    15
100
AcDbLine
 10
-61.4669513444
 20
-182.3412406262
 30
0.0
 11
-58.9596601969
 21
-178.0175483757
 31
0.0
  0
LINE
  5
15B
330
1F
100
AcDbEntity
  8
0
  6
Continuous
 62
     7
370
    15
100
AcDbLine
 10
-58.9596601969
 20
-178.0175483757
 30
0.0
 11
-67.5934488603
 21
-172.9953251974
 31
0.0
  0
LINE
  5
15C
330
1F
100
AcDbEntity
  8
0
  6
Continuous
 62
     7
370
    15
100
AcDbLine
 10
-67.5934488603
 20
-172.9953251974
 30
0.0
 11
-70.1007400077
 21
-177.3190174479
 31
0.0
  0
LINE
  5
15D
330
1F
100
AcDbEntity
  8
0
  6
Continuous
 62
     7
370
    15
100
AcDbLine
 10
-70.1007400077
 20
-177.3190174479
 30
0.0
 11
-78.7345286711
 21
-172.2967942696
 31
0.0
  0
LINE
  5
15E
330
1F
100
AcDbEntity
  8
0
  6
Continuous
 62
     7
370
    15
100
AcDbLine
 10
-78.7345286711
 20
-172.2967942696
 30
0.0
 11
-76.2272375236
 21
-167.9731020191
 31
0.0
  0
LINE
  5
15F
330
1F
100
AcDbEntity
  8
0
  6
Continuous
 62
     7
370
    15
100
AcDbLine
 10
-76.2272375236
 20
-167.9731020191
 30
0.0
 11
-84.861026187
 21
-162.9508788407
 31
0.0
  0
LINE
  5
160
330
1F
100
AcDbEntity
  8
0
  6
Continuous
 62
     7
370
    15
100
AcDbLine
 10
-84.861026187
 20
-162.9508788407
 30
0.0
 11
-87.3683173344
 21
-167.2745710913
 31
0.0
  0
LINE
  5
161
330
1F
100
AcDbEntity
  8
0
  6
Continuous
 62
     7
370
    15
100
AcDbLine
 10
-87.3683173344
 20
-167.2745710913
 30
0.0
 11
-96.0021059978
 21
-162.2523479129
 31
0.0
  0
LINE
  5
162
330
1F
100
AcDbEntity
  8
0
  6
Continuous
 62
     7
370
    15
100
AcDbLine
 10
-96.0021059978
 20
-162.2523479129
 30
0.0
 11
-93.4948148503
 21
-157.9286556624
 31
0.0
  0
LINE
  5
163
330
1F
100
AcDbEntity
  8
0
  6
Continuous
 62
     7
370
    15
100
AcDbLine
 10
-93.4948148503
 20
-157.9286556624
 30
0.0
 11
-102.1286035137
 21
-152.9064324841
 31
0.0
  0
LINE
  5
164
330
1F
100
AcDbEntity
  8
0
  6
Continuous
 62
     7
370
    15
100
AcDbLine
 10
-102.1286035137
 20
-152.9064324841
 30
0.0
 11
-104.6358946611
 21
-157.2301247346
 31
0.0
  0
LINE
  5
165
330
1F
100
AcDbEntity
  8
0
  6
Continuous
 62
     7
370
    15
100
AcDbLine
 10
-104.6358946611
 20
-157.2301247346
 30
0.0
 11
-113.2696833245
 21
-152.2079015563
 31
0.0
  0
LINE
  5
166
330
1F
100
AcDbEntity
  8
0
  6
Continuous
 62
     7
370
    15
100
AcDbLine
 10
-113.2696833245
 20
-152.2079015563
 30
0.0
 11
-110.762392177
 21
-147.8842093058
 31
0.0
  0
LINE
  5
167
330
1F
100
AcDbEntity
  8
0
  6
Continuous
 62
     7
370
    15
100
AcDbLine
 10
-110.762392177
 20
-147.8842093058
 30
0.0
 11
-119.3961808404
 21
-142.8619861275
 31
0.0
  0
LINE
  5
168
330
1F
100
AcDbEntity
  8
0
  6
Continuous
 62
     7
370
    15
100
AcDbLine
 10
-119.3961808404
 20
-142.8619861275
 30
0.0
 11
-121.9034719878
 21
-147.185678378
 31
0.0
  0
LINE
  5
169
330
1F
100
AcDbEntity
  8
0
  6
Continuous
 62
     7
370
    15
100
AcDbLine
 10
-121.9034719878
 20
-147.185678378
 30
0.0
 11
-130.5372606512
 21
-142.1634551997
 31
0.0
  0
LINE
  5
16A
330
1F
100
AcDbEntity
  8
0
  6
Continuous
 62
     7
370
    15
100
AcDbLine
 10
-130.5372606512
 20
-142.1634551997
 30
0.0
 11
-128.0299695037
 21
-137.8397629491
 31
0.0
  0
LINE
  5
16B
330
1F
100
AcDbEntity
  8
0
  6
Continuous
 62
     7
370
    15
100
AcDbLine
 10
-128.0299695037
 20
-137.8397629491
 30
0.0
 11
-136.6637581671
 21
-132.8175397708
 31
0.0
  0
LINE
  5
16C
330
1F
100
AcDbEntity
  8
0
  6
Continuous
 62
     7
370
    15
100
AcDbLine
 10
-136.6637581671
 20
-132.8175397708
 30
0.0
 11
-139.1710493145
 21
-137.1412320213
 31
0.0
  0
LINE
  5
16D
330
1F
100
AcDbEntity
  8
0
  6
Continuous
 62
     7
370
    15
100
AcDbLine
 10
-139.1710493145
 20
-137.1412320213
 30
0.0
 11
-147.8048379779
 21
-132.119008843
 31
0.0
  0
LINE
  5
16E
330
1F
100
AcDbEntity
  8
0
  6
Continuous
 62
     7
370
    15
100
AcDbLine
 10
-147.8048379779
 20
-132.119008843
 30
0.0
 11
-145.2975468304
 21
-127.7953165925
 31
0.0
  0
LINE
  5
16F
330
1F
100
AcDbEntity
  8
0
  6
Continuous
 62
     7
370
    15
100
AcDbLine
 10
-145.2975468304
 20
-127.7953165925
 30
0.0
 11
-153.9313354938
 21
-122.7730934142
 31
0.0
  0
LINE
  5
170
330
1F
100
AcDbEntity
  8
0
  6
Continuous
 62
     7
370
    15
100
AcDbLine
 10
-153.9313354938
 20
-122.7730934142
 30
0.0
 11
-156.4386266412
 21
-127.0967856647
 31
0.0
  0
LINE
  5
171
330
1F
100
AcDbEntity
  8
0
  6
Continuous
 62
     7
370
    15
100
AcDbLine
 10
-156.4386266412
 20
-127.0967856647
 30
0.0
 11
-165.0724153046
 21
-122.0745624864
 31
0.0
  0
LINE
  5
172
330
1F
100
AcDbEntity
  8
0
  6
Continuous
 62
     7
370
    15
100
AcDbLine
 10
-165.0724153046
 20
-122.0745624864
 30
0.0
 11
-162.5651241571
 21
-117.7508702359
 31
0.0
  0
LINE
  5
173
330
1F
100
AcDbEntity
  8
0
  6
Continuous
 62
     7
370
    15
100
AcDbLine
 10
-162.5651241571
 20
-117.7508702359
 30
0.0
 11
-171.1989128205
 21
-112.7286470576
 31
0.0
  0
LINE
  5
174
330
1F
100
AcDbEntity
  8
0
  6
Continuous
 62
     7
370
    15
100
AcDbLine
 10
-171.1989128205
 20
-112.7286470576
 30
0.0
 11
-173.7062039679
 21
-117.0523393081
 31
0.0
  0
LINE
  5
175
330
1F
100
AcDbEntity
  8
0
  6
Continuous
 62
     7
370
    15
100
AcDbLine
 10
-173.7062039679
 20
-117.0523393081
 30
0.0
 11
-203.9244642897
 21
-99.474558184
 31
0.0
  0
LINE
  5
176
330
1F
100
AcDbEntity
  8
0
  6
Continuous
 62
     7
370
    15
100
AcDbLine
 10
-203.9244642897
 20
-99.474558184
 30
0.0
 11
-173.6156893302
 21
-82.0524574564
 31
0.0
  0
LINE
  5
177
330
1F
100
AcDbEntity
  8
0
  6
Continuous
 62
     7
370
    15
100
AcDbLine
 10
-173.6156893302
 20
-82.0524574564
 30
0.0
 11
-171.1307947473
 21
-86.3889900096
 31
0.0
  0
LINE
  5
178
330
1F
100
AcDbEntity
  8
0
  6
Continuous
 62
     7
370
    15
100
AcDbLine
 10
-171.1307947473
 20
-86.3889900096
 30
0.0
 11
-162.4711447588
 21
-81.4112469445
 31
0.0
  0
LINE
  5
179
330
1F
100
AcDbEntity
  8
0
  6
Continuous
 62
     7
370
    15
100
AcDbLine
 10
-162.4711447588
 20
-81.4112469445
 30
0.0
 11
-164.9560393418
 21
-77.0747143913
 31
0.0
  0
LINE
  5
17A
330
1F
100
AcDbEntity
  8
0
  6
Continuous
 62
     7
370
    15
100
AcDbLine
 10
-164.9560393418
 20
-77.0747143913
 30
0.0
 11
-156.2963893534
 21
-72.0969713263
 31
0.0
  0
LINE
  5
17B
330
1F
100
AcDbEntity
  8
0
  6
Continuous
 62
     7
370
    15
100
AcDbLine
 10
-156.2963893534
 20
-72.0969713263
 30
0.0
 11
-153.8114947704
 21
-76.4335038795
 31
0.0
  0
LINE
  5
17C
330
1F
100
AcDbEntity
  8
0
  6
Continuous
 62
     7
370
    15
100
AcDbLine
 10
-153.8114947704
 20
-76.4335038795
 30
0.0
 11
-145.151844782
 21
-71.4557608145
 31
0.0
  0
LINE
  5
17D
330
1F
100
AcDbEntity
  8
0
  6
Continuous
 62
     7
370
    15
100
AcDbLine
 10
-145.151844782
 20
-71.4557608145
 30
0.0
 11
-147.636739365
 21
-67.1192282613
 31
0.0
  0
LINE
  5
17E
330
1F
100
AcDbEntity
  8
0
  6
Continuous
 62
     7
370
    15
100
AcDbLine
 10
-147.636739365
 20
-67.1192282613
 30
0.0
 11
-138.9770893766
 21
-62.1414851962
 31
0.0
  0
LINE
  5
17F
330
1F
100
AcDbEntity
  8
0
  6
Continuous
 62
     7
370
    15
100
AcDbLine
 10
-138.9770893766
 20
-62.1414851962
 30
0.0
 11
-136.4921947936
 21
-66.4780177495
 31
0.0
  0
LINE
  5
180
330
1F
100
AcDbEntity
  8
0
  6
Continuous
 62
     7
370
    15
100
AcDbLine
 10
-136.4921947936
 20
-66.4780177495
 30
0.0
 11
-127.8325448052
 21
-61.5002746844
 31
0.0
  0
LINE
  5
181
330
1F
100
AcDbEntity
  8
0
  6
Continuous
 62
     7
370
    15
100
AcDbLine
 10
-127.8325448052
 20
-61.5002746844
 30
0.0
 11
-130.3174393882
 21
-57.1637421312
 31
0.0
  0
LINE
  5
182
330
1F
100
AcDbEntity
  8
0
  6
Continuous
 62
     7
370
    15
100
AcDbLine
 10
-130.3174393882
 20
-57.1637421312
 30
0.0
 11
-121.6577893998
 21
-52.1859990662
 31
0.0
  0
LINE
  5
183
330
1F
100
AcDbEntity
  8
0
  6
Continuous
 62
     7
370
    15
100
AcDbLine
 10
-121.6577893998
 20
-52.1859990662
 30
0.0
 11
-119.1728948168
 21
-56.5225316194
 31
0.0
  0
LINE
  5
184
330
1F
100
AcDbEntity
  8
0
  6
Continuous
 62
     7
370
    15
100
AcDbLine
 10
-119.1728948168
 20
-56.5225316194
 30
0.0
 11
-110.5132448284
 21
-51.5447885544
 31
0.0
  0
LINE
  5
185
330
1F
100
AcDbEntity
  8
0
  6
Continuous
 62
     7
370
    15
100
AcDbLine
 10
-110.5132448284
 20
-51.5447885544
 30
0.0
 11
-112.9981394113
 21
-47.2082560012
 31
0.0
  0
LINE
  5
186
330
1F
100
AcDbEntity
  8
0
  6
Continuous
 62
     7
370
    15
100
AcDbLine
 10
-112.9981394113
 20
-47.2082560012
 30
0.0
 11
-104.3384894229
 21
-42.2305129361
 31
0.0
  0
LINE
  5
187
330
1F
100
AcDbEntity
  8
0
  6
Continuous
 62
     7
370
    15
100
AcDbLine
 10
-104.3384894229
 20
-42.2305129361
 30
0.0
 11
-101.85359484
 21
-46.5670454893
 31
0.0
  0
LINE
  5
188
330
1F
100
AcDbEntity
  8
0
  6
Continuous
 62
     7
370
    15
100
AcDbLine
 10
-101.85359484
 20
-46.5670454893
 30
0.0
 11
-93.1939448516
 21
-41.5893024243
 31
0.0
  0
LINE
  5
189
330
1F
100
AcDbEntity
  8
0
  6
Continuous
 62
     7
370
    15
100
AcDbLine
 10
-93.1939448516
 20
-41.5893024243
 30
0.0
 11
-95.6788394345
 21
-37.2527698711
 31
0.0
  0
LINE
  5
18A
330
1F
100
AcDbEntity
  8
0
  6
Continuous
 62
     7
370
    15
100
AcDbLine
 10
-95.6788394345
 20
-37.2527698711
 30
0.0
 11
-87.0191894461
 21
-32.2750268061
 31
0.0
  0
LINE
  5
18B
330
1F
100
AcDbEntity
  8
0
  6
Continuous
 62
     7
370
    15
100
AcDbLine
 10
-87.0191894461
 20
-32.2750268061
 30
0.0
 11
-84.5342948631
 21
-36.6115593593
 31
0.0
  0
LINE
  5
18C
330
1F
100
AcDbEntity
  8
0
  6
Continuous
 62
     7
370
    15
100
AcDbLine
 10
-84.5342948631
 20
-36.6115593593
 30
0.0
 11
-75.8746448747
 21
-31.6338162942
 31
0.0
  0
LINE
  5
18D
330
1F
100
AcDbEntity
  8
0
  6
Continuous
 62
     7
370
    15
100
AcDbLine
 10
-75.8746448747
 20
-31.6338162942
 30
0.0
 11
-78.3595394577
 21
-27.297283741
 31
0.0
  0
LINE
  5
18E
330
1F
100
AcDbEntity
  8
0
  6
Continuous
 62
     7
370
    15
100
AcDbLine
 10
-78.3595394577
 20
-27.297283741
 30
0.0
 11
-69.6998894693
 21
-22.319540676
 31
0.0
  0
LINE
  5
18F
330
1F
100
AcDbEntity
  8
0
  6
Continuous
 62
     7
370
    15
100
AcDbLine
 10
-69.6998894693
 20
-22.319540676
 30
0.0
 11
-67.2149948863
 21
-26.6560732292
 31
0.0
  0
LINE
  5
190
330
1F
100
AcDbEntity
  8
0
  6
Continuous
 62
     7
370
    15
100
AcDbLine
 10
-67.2149948863
 20
-26.6560732292
 30
0.0
 11
-58.5553448979
 21
-21.6783301642
 31
0.0
  0
LINE
  5
191
330
1F
100
AcDbEntity
  8
0
  6
Continuous
 62
     7
370
    15
100
AcDbLine
 10
-58.5553448979
 20
-21.6783301642
 30
0.0
 11
-61.0402394809
 21
-17.341797611
 31
0.0
  0
LINE
  5
192
330
1F
100
AcDbEntity
  8
0
  6
Continuous
 62
     7
370
    15
100
AcDbLine
 10
-61.0402394809
 20
-17.341797611
 30
0.0
 11
-52.3805894925
 21
-12.3640545459
 31
0.0
  0
LINE
  5
193
330
1F
100
AcDbEntity
  8
0
  6
Continuous
 62
     7
370
    15
100
AcDbLine
 10
-52.3805894925
 20
-12.3640545459
 30
0.0
 11
-49.8956949095
 21
-16.7005870991
 31
0.0
  0
LINE
  5
194
330
1F
100
AcDbEntity
  8
0
  6
Continuous
 62
     7
370
    15
100
AcDbLine
 10
-49.8956949095
 20
-16.7005870991
 30
0.0
 11
-41.2360449211
 21
-11.7228440341
 31
0.0
  0
LINE
  5
195
330
1F
100
AcDbEntity
  8
0
  6
Continuous
 62
     7
370
    15
100
AcDbLine
 10
-41.2360449211
 20
-11.7228440341
 30
0.0
 11
-43.720939504
 21
-7.3863114809
 31
0.0
  0
LINE
  5
196
330
1F
100
AcDbEntity
  8
0
  6
Continuous
 62
     7
370
    15
100
AcDbLine
 10
-43.720939504
 20
-7.3863114809
 30
0.0
 11
-30.7314645214
 21
0.0803031166
 31
0.0
  0
LINE
  5
197
330
1F
100
AcDbEntity
  8
0
  6
Continuous
 62
     7
370
    15
100
AcDbLine
 10
2.2169612993
 20
-0.0044428811
 30
0.0
 11
-30.7314645214
 21
0.0803031166
 31
0.0
  0
LINE
  5
198
330
1F
100
AcDbEntity
  8
0
  6
Continuous
 62
     7
370
    15
100
AcDbLine
 10
2.2169612993
 20
-0.0044428811
 30
0.0
 11
2.1652386492
 21
-20.0043753678
 31
0.0
  0
LINE
  5
199
330
1F
100
AcDbEntity
  8
0
  6
Continuous
 62
     7
370
    15
100
AcDbLine
 10
2.1652386492
 20
-20.0043753678
 30
0.0
 11
-2.8269470813
 21
-19.9915350651
 31
0.0
  0
LINE
  5
19A
330
1F
100
AcDbEntity
  8
0
  6
Continuous
 62
     7
370
    15
100
AcDbLine
 10
-2.8269470813
 20
-19.9915350651
 30
0.0
 11
-2.8528084063
 21
-29.9915013085
 31
0.0
  0
LINE
  5
19B
330
1F
100
AcDbEntity
  8
0
  6
Continuous
 62
     7
370
    15
100
AcDbLine
 10
-2.8528084063
 20
-29.9915013085
 30
0.0
 11
2.1393773241
 21
-30.0043416112
 31
0.0
  0
LINE
  5
19C
330
1F
100
AcDbEntity
  8
0
  6
Continuous
 62
     7
370
    15
100
AcDbLine
 10
2.1393773241
 20
-30.0043416112
 30
0.0
 11
2.113515999
 21
-40.0043078545
 31
0.0
  0
LINE
  5
19D
330
1F
100
AcDbEntity
  8
0
  6
Continuous
 62
     7
370
    15
100
AcDbLine
 10
2.113515999
 20
-40.0043078545
 30
0.0
 11
-2.8786697314
 21
-39.9914675518
 31
0.0
  0
LINE
  5
19E
330
1F
100
AcDbEntity
  8
0
  6
Continuous
 62
     7
370
    15
100
AcDbLine
 10
-2.8786697314
 20
-39.9914675518
 30
0.0
 11
-2.9045310564
 21
-49.9914337952
 31
0.0
  0
LINE
  5
19F
330
1F
100
AcDbEntity
  8
0
  6
Continuous
 62
     7
370
    15
100
AcDbLine
 10
-2.9045310564
 20
-49.9914337952
 30
0.0
 11
2.087654674
 21
-50.0042740979
 31
0.0
  0
LINE
  5
1A0
330
1F
100
AcDbEntity
  8
0
  6
Continuous
 62
     7
370
    15
100
AcDbLine
 10
2.087654674
 20
-50.0042740979
 30
0.0
 11
2.0617933489
 21
-60.0042403412
 31
0.0
  0
LINE
  5
1A1
330
1F
100
AcDbEntity
  8
0
  6
Continuous
 62
     7
370
    15
100
AcDbLine
 10
2.0617933489
 20
-60.0042403412
 30
0.0
 11
-2.9303923815
 21
-59.9914000385
 31
0.0
  0
LINE
  5
1A2
330
1F
100
AcDbEntity
  8
0
  6
Continuous
 62
     7
370
    15
100
AcDbLine
 10
-2.9303923815
 20
-59.9914000385
 30
0.0
 11
-2.9562537065
 21
-69.9913662819
 31
0.0
  0
LINE
  5
1A3
330
1F
100
AcDbEntity
  8
0
  6
Continuous
 62
     7
370
    15
100
AcDbLine
 10
-2.9562537065
 20
-69.9913662819
 30
0.0
 11
2.0359320239
 21
-70.0042065846
 31
0.0
  0
LINE
  5
1A4
330
1F
100
AcDbEntity
  8
0
  6
Continuous
 62
     7
370
    15
100
AcDbLine
 10
2.0359320239
 20
-70.0042065846
 30
0.0
 11
2.0100706988
 21
-80.0041728279
 31
0.0
  0
LINE
  5
1A5
330
1F
100
AcDbEntity
  8
0
  6
Continuous
 62
     7
370
    15
100
AcDbLine
 10
2.0100706988
 20
-80.0041728279
 30
0.0
 11
-2.9821150316
 21
-79.9913325252
 31
0.0
  0
LINE
  5
1A6
330
1F
100
AcDbEntity
  8
0
  6
Continuous
 62
     7
370
    15
100
AcDbLine
 10
-2.9821150316
 20
-79.9913325252
 30
0.0
 11
-3.0079763567
 21
-89.9912987686
 31
0.0
  0
LINE
  5
1A7
330
1F
100
AcDbEntity
  8
0
  6
Continuous
 62
     7
370
    15
100
AcDbLine
 10
-3.0079763567
 20
-89.9912987686
 30
0.0
 11
1.9842093737
 21
-90.0041390712
 31
0.0
  0
LINE
  5
1A8
330
1F
100
AcDbEntity
  8
0
  6
Continuous
 62
     7
370
    15
100
AcDbLine
 10
1.9842093737
 20
-90.0041390712
 30
0.0
 11
1.9583480487
 21
-100.0041053146
 31
0.0
  0
LINE
  5
1A9
330
1F
100
AcDbEntity
  8
0
  6
Continuous
 62
     7
370
    15
100
AcDbLine
 10
1.9583480487
 20
-100.0041053146
 30
0.0
 11
-3.0338376817
 21
-99.9912650119
 31
0.0
  0
LINE
  5
1AA
330
1F
100
AcDbEntity
  8
0
  6
Continuous
 62
     7
370
    15
100
AcDbLine
 10
-3.0338376817
 20
-99.9912650119
 30
0.0
 11
-3.0596990068
 21
-109.9912312553
 31
0.0
  0
LINE
  5
1AB
330
1F
100
AcDbEntity
  8
0
  6
Continuous
 62
     7
370
    15
100
AcDbLine
 10
-3.0596990068
 20
-109.9912312553
 30
0.0
 11
1.9324867236
 21
-110.0040715579
 31
0.0
  0
LINE
  5
1AC
330
1F
100
AcDbEntity
  8
0
  6
Continuous
 62
     7
370
    15
100
AcDbLine
 10
1.9324867236
 20
-110.0040715579
 30
0.0
 11
1.9066253986
 21
-120.0040378013
 31
0.0
  0
LINE
  5
1AD
330
1F
100
AcDbEntity
  8
0
  6
Continuous
 62
     7
370
    15
100
AcDbLine
 10
1.9066253986
 20
-120.0040378013
 30
0.0
 11
-3.0855603318
 21
-119.9911974986
 31
0.0
  0
LINE
  5
1AE
330
1F
100
AcDbEntity
  8
0
  6
Continuous
 62
     7
370
    15
100
AcDbLine
 10
-3.0855603318
 20
-119.9911974986
 30
0.0
 11
-3.1114216569
 21
-129.991163742
 31
0.0
  0
LINE
  5
1AF
330
1F
100
AcDbEntity
  8
0
  6
Continuous
 62
     7
370
    15
100
AcDbLine
 10
-3.1114216569
 20
-129.991163742
 30
0.0
 11
1.8807640735
 21
-130.0040040446
 31
0.0
  0
LINE
  5
1B0
330
1F
100
AcDbEntity
  8
0
  6
Continuous
 62
     7
370
    15
100
AcDbLine
 10
1.8807640735
 20
-130.0040040446
 30
0.0
 11
1.8549027484
 21
-140.003970288
 31
0.0
  0
LINE
  5
1B1
330
1F
100
AcDbEntity
  8
0
  6
Continuous
 62
     7
370
    15
100
AcDbLine
 10
1.8549027484
 20
-140.003970288
 30
0.0
 11
-3.137282982
 21
-139.9911299853
 31
0.0
  0
LINE
  5
1B2
330
1F
100
AcDbEntity
  8
0
  6
Continuous
 62
     7
370
    15
100
AcDbLine
 10
-3.137282982
 20
-139.9911299853
 30
0.0
 11
-3.163144307
 21
-149.9910962287
 31
0.0
  0
LINE
  5
1B3
330
1F
100
AcDbEntity
  8
0
  6
Continuous
 62
     7
370
    15
100
AcDbLine
 10
-3.163144307
 20
-149.9910962287
 30
0.0
 11
1.8290414234
 21
-150.0039365313
 31
0.0
  0
LINE
  5
1B4
330
1F
100
AcDbEntity
  8
0
  6
Continuous
 62
     7
370
    15
100
AcDbLine
 10
1.8290414234
 20
-150.0039365313
 30
0.0
 11
1.8031800983
 21
-160.0039027747
 31
0.0
  0
LINE
  5
1B5
330
1F
100
AcDbEntity
  8
0
  6
Continuous
 62
     7
370
    15
100
AcDbLine
 10
1.8031800983
 20
-160.0039027747
 30
0.0
 11
-3.1890056321
 21
-159.991062472
 31
0.0
  0
LINE
  5
1B6
330
1F
100
AcDbEntity
  8
0
  6
Continuous
 62
     7
370
    15
100
AcDbLine
 10
-3.1890056321
 20
-159.991062472
 30
0.0
 11
-3.2148669571
 21
-169.9910287153
 31
0.0
  0
LINE
  5
1B7
330
1F
100
AcDbEntity
  8
0
  6
Continuous
 62
     7
370
    15
100
AcDbLine
 10
-3.2148669571
 20
-169.9910287153
 30
0.0
 11
1.7773187733
 21
-170.003869018
 31
0.0
  0
LINE
  5
1B8
330
1F
100
AcDbEntity
  8
0
  6
Continuous
 62
     7
370
    15
100
AcDbLine
 10
1.7773187733
 20
-170.003869018
 30
0.0
 11
1.7514574482
 21
-180.0038352614
 31
0.0
  0
LINE
  5
1B9
330
1F
100
AcDbEntity
  8
0
  6
Continuous
 62
     7
370
    15
100
AcDbLine
 10
1.7514574482
 20
-180.0038352614
 30
0.0
 11
-3.2407282822
 21
-179.9909949587
 31
0.0
  0
LINE
  5
1BA
330
1F
100
AcDbEntity
  8
0
  6
Continuous
 62
     7
370
    15
100
AcDbLine
 10
-31.2486910226
 20
-199.9190217503
 30
0.0
 11
-30.9695594567
 21
-199.9209990206
 31
0.0
  0
LINE
  5
1BB
330
1F
100
AcDbEntity
  8
0
  6
Continuous
 62
     7
370
    15
100
AcDbLine
 10
1.978866364
 20
-200.0057450183
 30
0.0
 11
-30.9695594567
 21
-199.9209990206
 31
0.0
  0
LINE
  5
1BC
330
1F
100
AcDbEntity
  8
0
  6
Continuous
 62
     7
370
    15
100
AcDbLine
 10
2.0564503392
 20
-170.0058462883
 30
0.0
 11
1.7773187733
 21
-170.003869018
 31
0.0
  0
LINE
  5
1BD
330
1F
100
AcDbEntity
  8
0
  6
Continuous
 62
     7
370
    15
100
AcDbLine
 10
2.0564503392
 20
-170.0058462883
 30
0.0
 11
2.0305890141
 21
-180.0058125316
 31
0.0
  0
LINE
  5
1BE
330
1F
100
AcDbEntity
  8
0
  6
Continuous
 62
     7
370
    15
100
AcDbLine
 10
2.0305890141
 20
-180.0058125316
 30
0.0
 11
1.7514574482
 21
-180.0038352614
 31
0.0
  0
LINE
  5
1BF
330
1F
100
AcDbEntity
  8
0
  6
Continuous
 62
     7
370
    15
100
AcDbLine
 10
2.0305890141
 20
-180.0058125316
 30
0.0
 11
-2.9615967163
 21
-179.9929722289
 31
0.0
  0
LINE
  5
1C0
330
1F
100
AcDbEntity
  8
0
  6
Continuous
 62
     7
370
    15
100
AcDbLine
 10
-2.9615967163
 20
-179.9929722289
 30
0.0
 11
-3.2407282822
 21
-179.9909949587
 31
0.0
  0
LINE
  5
1C1
330
1F
100
AcDbEntity
  8
0
  6
Continuous
 62
     7
370
    15
100
AcDbLine
 10
2.0823116643
 20
-160.0058800449
 30
0.0
 11
1.8031800983
 21
-160.0039027747
 31
0.0
  0
LINE
  5
1C2
330
1F
100
AcDbEntity
  8
0
  6
Continuous
 62
     7
370
    15
100
AcDbLine
 10
2.0823116643
 20
-160.0058800449
 30
0.0
 11
-2.9098740662
 21
-159.9930397422
 31
0.0
  0
LINE
  5
1C3
330
1F
100
AcDbEntity
  8
0
  6
Continuous
 62
     7
370
    15
100
AcDbLine
 10
-2.9098740662
 20
-159.9930397422
 30
0.0
 11
-3.1890056321
 21
-159.991062472
 31
0.0
  0
LINE
  5
1C4
330
1F
100
AcDbEntity
  8
0
  6
Continuous
 62
     7
370
    15
100
AcDbLine
 10
2.1081729893
 20
-150.0059138016
 30
0.0
 11
1.8290414234
 21
-150.0039365313
 31
0.0
  0
LINE
  5
1C5
330
1F
100
AcDbEntity
  8
0
  6
Continuous
 62
     7
370
    15
100
AcDbLine
 10
2.1081729893
 20
-150.0059138016
 30
0.0
 11
2.0823116643
 21
-160.0058800449
 31
0.0
  0
LINE
  5
1C6
330
1F
100
AcDbEntity
  8
0
  6
Continuous
 62
     7
370
    15
100
AcDbLine
 10
2.1340343144
 20
-140.0059475582
 30
0.0
 11
1.8549027484
 21
-140.003970288
 31
0.0
  0
LINE
  5
1C7
330
1F
100
AcDbEntity
  8
0
  6
Continuous
 62
     7
370
    15
100
AcDbLine
 10
2.1340343144
 20
-140.0059475582
 30
0.0
 11
-2.858151416
 21
-139.9931072555
 31
0.0
  0
LINE
  5
1C8
330
1F
100
AcDbEntity
  8
0
  6
Continuous
 62
     7
370
    15
100
AcDbLine
 10
-2.858151416
 20
-139.9931072555
 30
0.0
 11
-3.137282982
 21
-139.9911299853
 31
0.0
  0
LINE
  5
1C9
330
1F
100
AcDbEntity
  8
0
  6
Continuous
 62
     7
370
    15
100
AcDbLine
 10
2.1598956394
 20
-130.0059813149
 30
0.0
 11
1.8807640735
 21
-130.0040040446
 31
0.0
  0
LINE
  5
1CA
330
1F
100
AcDbEntity
  8
0
  6
Continuous
 62
     7
370
    15
100
AcDbLine
 10
2.1598956394
 20
-130.0059813149
 30
0.0
 11
2.1340343144
 21
-140.0059475582
 31
0.0
  0
LINE
  5
1CB
330
1F
100
AcDbEntity
  8
0
  6
Continuous
 62
     7
370
    15
100
AcDbLine
 10
2.1857569645
 20
-120.0060150715
 30
0.0
 11
1.9066253986
 21
-120.0040378013
 31
0.0
  0
LINE
  5
1CC
330
1F
100
AcDbEntity
  8
0
  6
Continuous
 62
     7
370
    15
100
AcDbLine
 10
2.1857569645
 20
-120.0060150715
 30
0.0
 11
-2.8064287659
 21
-119.9931747688
 31
0.0
  0
LINE
  5
1CD
330
1F
100
AcDbEntity
  8
0
  6
Continuous
 62
     7
370
    15
100
AcDbLine
 10
-2.8064287659
 20
-119.9931747688
 30
0.0
 11
-3.0855603318
 21
-119.9911974986
 31
0.0
  0
LINE
  5
1CE
330
1F
100
AcDbEntity
  8
0
  6
Continuous
 62
     7
370
    15
100
AcDbLine
 10
2.2116182895
 20
-110.0060488282
 30
0.0
 11
1.9324867236
 21
-110.0040715579
 31
0.0
  0
LINE
  5
1CF
330
1F
100
AcDbEntity
  8
0
  6
Continuous
 62
     7
370
    15
100
AcDbLine
 10
2.2116182895
 20
-110.0060488282
 30
0.0
 11
2.1857569645
 21
-120.0060150715
 31
0.0
  0
LINE
  5
1D0
330
1F
100
AcDbEntity
  8
0
  6
Continuous
 62
     7
370
    15
100
AcDbLine
 10
2.2374796146
 20
-100.0060825848
 30
0.0
 11
1.9583480487
 21
-100.0041053146
 31
0.0
  0
LINE
  5
1D1
330
1F
100
AcDbEntity
  8
0
  6
Continuous
 62
     7
370
    15
100
AcDbLine
 10
2.2374796146
 20
-100.0060825848
 30
0.0
 11
-2.7547061158
 21
-99.9932422821
 31
0.0
  0
LINE
  5
1D2
330
1F
100
AcDbEntity
  8
0
  6
Continuous
 62
     7
370
    15
100
AcDbLine
 10
-2.7547061158
 20
-99.9932422821
 30
0.0
 11
-3.0338376817
 21
-99.9912650119
 31
0.0
  0
LINE
  5
1D3
330
1F
100
AcDbEntity
  8
0
  6
Continuous
 62
     7
370
    15
100
AcDbLine
 10
2.2633409397
 20
-90.0061163415
 30
0.0
 11
1.9842093737
 21
-90.0041390712
 31
0.0
  0
LINE
  5
1D4
330
1F
100
AcDbEntity
  8
0
  6
Continuous
 62
     7
370
    15
100
AcDbLine
 10
2.2633409397
 20
-90.0061163415
 30
0.0
 11
2.2374796146
 21
-100.0060825848
 31
0.0
  0
LINE
  5
1D5
330
1F
100
AcDbEntity
  8
0
  6
Continuous
 62
     7
370
    15
100
AcDbLine
 10
2.3150635898
 20
-70.0061838548
 30
0.0
 11
2.2892022647
 21
-80.0061500981
 31
0.0
  0
LINE
  5
1D6
330
1F
100
AcDbEntity
  8
0
  6
Continuous
 62
     7
370
    15
100
AcDbLine
 10
2.2892022647
 20
-80.0061500981
 30
0.0
 11
2.0100706988
 21
-80.0041728279
 31
0.0
  0
LINE
  5
1D7
330
1F
100
AcDbEntity
  8
0
  6
Continuous
 62
     7
370
    15
100
AcDbLine
 10
2.3150635898
 20
-70.0061838548
 30
0.0
 11
2.0359320239
 21
-70.0042065846
 31
0.0
  0
LINE
  5
1D8
330
1F
100
AcDbEntity
  8
0
  6
Continuous
 62
     7
370
    15
100
AcDbLine
 10
2.2892022647
 20
-80.0061500981
 30
0.0
 11
-2.7029834657
 21
-79.9933097954
 31
0.0
  0
LINE
  5
1D9
330
1F
100
AcDbEntity
  8
0
  6
Continuous
 62
     7
370
    15
100
AcDbLine
 10
-2.7029834657
 20
-79.9933097954
 30
0.0
 11
-2.9821150316
 21
-79.9913325252
 31
0.0
  0
LINE
  5
1DA
330
1F
100
AcDbEntity
  8
0
  6
Continuous
 62
     7
370
    15
100
AcDbLine
 10
2.3667862399
 20
-50.0062513681
 30
0.0
 11
2.3409249148
 21
-60.0062176114
 31
0.0
  0
LINE
  5
1DB
330
1F
100
AcDbEntity
  8
0
  6
Continuous
 62
     7
370
    15
100
AcDbLine
 10
2.3409249148
 20
-60.0062176114
 30
0.0
 11
2.0617933489
 21
-60.0042403412
 31
0.0
  0
LINE
  5
1DC
330
1F
100
AcDbEntity
  8
0
  6
Continuous
 62
     7
370
    15
100
AcDbLine
 10
2.3667862399
 20
-50.0062513681
 30
0.0
 11
2.087654674
 21
-50.0042740979
 31
0.0
  0
LINE
  5
1DD
330
1F
100
AcDbEntity
  8
0
  6
Continuous
 62
     7
370
    15
100
AcDbLine
 10
2.3409249148
 20
-60.0062176114
 30
0.0
 11
-2.6512608156
 21
-59.9933773087
 31
0.0
  0
LINE
  5
1DE
330
1F
100
AcDbEntity
  8
0
  6
Continuous
 62
     7
370
    15
100
AcDbLine
 10
-2.6512608156
 20
-59.9933773087
 30
0.0
 11
-2.9303923815
 21
-59.9914000385
 31
0.0
  0
LINE
  5
1DF
330
1F
100
AcDbEntity
  8
0
  6
Continuous
 62
     7
370
    15
100
AcDbLine
 10
2.392647565
 20
-40.0062851247
 30
0.0
 11
2.113515999
 21
-40.0043078545
 31
0.0
  0
LINE
  5
1E0
330
1F
100
AcDbEntity
  8
0
  6
Continuous
 62
     7
370
    15
100
AcDbLine
 10
2.392647565
 20
-40.0062851247
 30
0.0
 11
-2.5995381654
 21
-39.9934448221
 31
0.0
  0
LINE
  5
1E1
330
1F
100
AcDbEntity
  8
0
  6
Continuous
 62
     7
370
    15
100
AcDbLine
 10
-2.5995381654
 20
-39.9934448221
 30
0.0
 11
-2.8786697314
 21
-39.9914675518
 31
0.0
  0
LINE
  5
1E2
330
1F
100
AcDbEntity
  8
0
  6
Continuous
 62
     7
370
    15
100
AcDbLine
 10
2.41850889
 20
-30.0063188814
 30
0.0
 11
2.392647565
 21
-40.0062851247
 31
0.0
  0
LINE
  5
1E3
330
1F
100
AcDbEntity
  8
0
  6
Continuous
 62
     7
370
    15
100
AcDbLine
 10
2.41850889
 20
-30.0063188814
 30
0.0
 11
2.1393773241
 21
-30.0043416112
 31
0.0
  0
LINE
  5
1E4
330
1F
100
AcDbEntity
  8
0
  6
Continuous
 62
     7
370
    15
100
AcDbLine
 10
2.4443702151
 20
-20.006352638
 30
0.0
 11
2.1652386492
 21
-20.0043753678
 31
0.0
  0
LINE
  5
1E5
330
1F
100
AcDbEntity
  8
0
  6
Continuous
 62
     7
370
    15
100
AcDbLine
 10
2.4443702151
 20
-20.006352638
 30
0.0
 11
-2.5478155153
 21
-19.9935123354
 31
0.0
  0
LINE
  5
1E6
330
1F
100
AcDbEntity
  8
0
  6
Continuous
 62
     7
370
    15
100
AcDbLine
 10
-2.5478155153
 20
-19.9935123354
 30
0.0
 11
-2.8269470813
 21
-19.9915350651
 31
0.0
  0
LINE
  5
1E7
330
1F
100
AcDbEntity
  8
0
  6
Continuous
 62
     7
370
    15
100
AcDbLine
 10
2.2169612993
 20
-0.0044428811
 30
0.0
 11
2.4960928652
 21
-0.0064201513
 31
0.0
  0
LINE
  5
1E8
330
1F
100
AcDbEntity
  8
0
  6
Continuous
 62
     7
370
    15
100
AcDbLine
 10
2.4960928652
 20
-0.0064201513
 30
0.0
 11
2.4443702151
 21
-20.006352638
 31
0.0
  0
LINE
  5
1E9
330
1F
100
AcDbEntity
  8
0
  6
Continuous
 62
     7
370
    15
100
AcDbLine
 10
-2.9615967163
 20
-179.9929722289
 30
0.0
 11
-2.9874547846
 21
-189.9916791592
 31
0.0
  0
LINE
  5
1EA
330
1F
100
AcDbEntity
  8
0
  6
Continuous
 62
     7
370
    15
100
AcDbLine
 10
-2.9098740662
 20
-159.9930397422
 30
0.0
 11
-2.9357321345
 21
-169.9917466725
 31
0.0
  0
LINE
  5
1EB
330
1F
100
AcDbEntity
  8
0
  6
Continuous
 62
     7
370
    15
100
AcDbLine
 10
-2.858151416
 20
-139.9931072555
 30
0.0
 11
-2.8840094843
 21
-149.9918141858
 31
0.0
  0
LINE
  5
1EC
330
1F
100
AcDbEntity
  8
0
  6
Continuous
 62
     7
370
    15
100
AcDbLine
 10
-2.8064287659
 20
-119.9931747688
 30
0.0
 11
-2.8322868342
 21
-129.9918816991
 31
0.0
  0
LINE
  5
1ED
330
1F
100
AcDbEntity
  8
0
  6
Continuous
 62
     7
370
    15
100
AcDbLine
 10
-2.7547061158
 20
-99.9932422821
 30
0.0
 11
-2.7805641841
 21
-109.9919492124
 31
0.0
  0
LINE
  5
1EE
330
1F
100
AcDbEntity
  8
0
  6
Continuous
 62
     7
370
    15
100
AcDbLine
 10
-2.7029834657
 20
-79.9933097954
 30
0.0
 11
-2.728841534
 21
-89.9920167257
 31
0.0
  0
LINE
  5
1EF
330
1F
100
AcDbEntity
  8
0
  6
Continuous
 62
     7
370
    15
100
AcDbLine
 10
-2.6512608156
 20
-59.9933773087
 30
0.0
 11
-2.6771188839
 21
-69.992084239
 31
0.0
  0
LINE
  5
1F0
330
1F
100
AcDbEntity
  8
0
  6
Continuous
 62
     7
370
    15
100
AcDbLine
 10
-2.5995381654
 20
-39.9934448221
 30
0.0
 11
-2.6253962337
 21
-49.9921517523
 31
0.0
  0
LINE
  5
1F1
330
1F
100
AcDbEntity
  8
0
  6
Continuous
 62
     7
370
    15
100
AcDbLine
 10
-2.5478155153
 20
-19.9935123354
 30
0.0
 11
-2.5736735836
 21
-29.9922192657
 31
0.0
  0
LINE
  5
1F2
330
1F
100
AcDbEntity
  8
0
  6
Continuous
 62
     7
370
    15
100
AcDbLine
 10
-50.1162898549
 20
-183.1616839618
 30
0.0
 11
-52.5540311151
 21
-187.3654410748
 31
0.0
  0
LINE
  5
1F3
330
1F
100
AcDbEntity
  8
0
  6
Continuous
 62
     7
370
    15
100
AcDbLine
 10
-52.5540311151
 20
-187.3654410748
 30
0.0
 11
-52.833162681
 21
-187.3634638045
 31
0.0
  0
LINE
  5
1F4
330
1F
100
AcDbEntity
  8
0
  6
Continuous
 62
     7
370
    15
100
AcDbLine
 10
-52.1014579265
 20
-12.3660318162
 30
0.0
 11
-52.3805894925
 21
-12.3640545459
 31
0.0
  0
LINE
  5
1F5
330
1F
100
AcDbEntity
  8
0
  6
Continuous
 62
     7
370
    15
100
AcDbLine
 10
-52.1014579265
 20
-12.3660318162
 30
0.0
 11
-49.6865759825
 21
-16.5803812837
 31
0.0
  0
LINE
  5
1F6
330
1F
100
AcDbEntity
  8
0
  6
Continuous
 62
     7
370
    15
100
AcDbLine
 10
-67.3838671816
 20
-173.1172376052
 30
0.0
 11
-69.8216084418
 21
-177.3209947181
 31
0.0
  0
LINE
  5
1F7
330
1F
100
AcDbEntity
  8
0
  6
Continuous
 62
     7
370
    15
100
AcDbLine
 10
-69.8216084418
 20
-177.3209947181
 30
0.0
 11
-70.1007400077
 21
-177.3190174479
 31
0.0
  0
LINE
  5
1F8
330
1F
100
AcDbEntity
  8
0
  6
Continuous
 62
     7
370
    15
100
AcDbLine
 10
-69.4207579034
 20
-22.3215179462
 30
0.0
 11
-69.6998894693
 21
-22.319540676
 31
0.0
  0
LINE
  5
1F9
330
1F
100
AcDbEntity
  8
0
  6
Continuous
 62
     7
370
    15
100
AcDbLine
 10
-69.4207579034
 20
-22.3215179462
 30
0.0
 11
-67.0058759593
 21
-26.5358674137
 31
0.0
  0
LINE
  5
1FA
330
1F
100
AcDbEntity
  8
0
  6
Continuous
 62
     7
370
    15
100
AcDbLine
 10
-84.6514445083
 20
-163.0727912485
 30
0.0
 11
-87.0891857685
 21
-167.2765483615
 31
0.0
  0
LINE
  5
1FB
330
1F
100
AcDbEntity
  8
0
  6
Continuous
 62
     7
370
    15
100
AcDbLine
 10
-87.0891857685
 20
-167.2765483615
 30
0.0
 11
-87.3683173344
 21
-167.2745710913
 31
0.0
  0
LINE
  5
1FC
330
1F
100
AcDbEntity
  8
0
  6
Continuous
 62
     7
370
    15
100
AcDbLine
 10
-86.7400578802
 20
-32.2770040763
 30
0.0
 11
-87.0191894461
 21
-32.2750268061
 31
0.0
  0
LINE
  5
1FD
330
1F
100
AcDbEntity
  8
0
  6
Continuous
 62
     7
370
    15
100
AcDbLine
 10
-86.7400578802
 20
-32.2770040763
 30
0.0
 11
-84.3251759361
 21
-36.4913535438
 31
0.0
  0
LINE
  5
1FE
330
1F
100
AcDbEntity
  8
0
  6
Continuous
 62
     7
370
    15
100
AcDbLine
 10
-104.3567630952
 20
-157.2321020049
 30
0.0
 11
-104.6358946611
 21
-157.2301247346
 31
0.0
  0
LINE
  5
1FF
330
1F
100
AcDbEntity
  8
0
  6
Continuous
 62
     7
370
    15
100
AcDbLine
 10
-101.919021835
 20
-153.0283448919
 30
0.0
 11
-104.3567630952
 21
-157.2321020049
 31
0.0
  0
LINE
  5
200
330
1F
100
AcDbEntity
  8
0
  6
Continuous
 62
     7
370
    15
100
AcDbLine
 10
-104.059357857
 20
-42.2324902064
 30
0.0
 11
-104.3384894229
 21
-42.2305129361
 31
0.0
  0
LINE
  5
201
330
1F
100
AcDbEntity
  8
0
  6
Continuous
 62
     7
370
    15
100
AcDbLine
 10
-104.059357857
 20
-42.2324902064
 30
0.0
 11
-101.644475913
 21
-46.4468396739
 31
0.0
  0
LINE
  5
202
330
1F
100
AcDbEntity
  8
0
  6
Continuous
 62
     7
370
    15
100
AcDbLine
 10
-121.6243404219
 20
-147.1876556482
 30
0.0
 11
-121.9034719878
 21
-147.185678378
 31
0.0
  0
LINE
  5
203
330
1F
100
AcDbEntity
  8
0
  6
Continuous
 62
     7
370
    15
100
AcDbLine
 10
-119.1865991617
 20
-142.9838985352
 30
0.0
 11
-121.6243404219
 21
-147.1876556482
 31
0.0
  0
LINE
  5
204
330
1F
100
AcDbEntity
  8
0
  6
Continuous
 62
     7
370
    15
100
AcDbLine
 10
-121.3786578338
 20
-52.1879763364
 30
0.0
 11
-121.6577893998
 21
-52.1859990662
 31
0.0
  0
LINE
  5
205
330
1F
100
AcDbEntity
  8
0
  6
Continuous
 62
     7
370
    15
100
AcDbLine
 10
-121.3786578338
 20
-52.1879763364
 30
0.0
 11
-118.9637758898
 21
-56.4023258039
 31
0.0
  0
LINE
  5
206
330
1F
100
AcDbEntity
  8
0
  6
Continuous
 62
     7
370
    15
100
AcDbLine
 10
-138.8919177486
 20
-137.1432092916
 30
0.0
 11
-139.1710493145
 21
-137.1412320213
 31
0.0
  0
LINE
  5
207
330
1F
100
AcDbEntity
  8
0
  6
Continuous
 62
     7
370
    15
100
AcDbLine
 10
-136.4541764884
 20
-132.9394521786
 30
0.0
 11
-138.8919177486
 21
-137.1432092916
 31
0.0
  0
LINE
  5
208
330
1F
100
AcDbEntity
  8
0
  6
Continuous
 62
     7
370
    15
100
AcDbLine
 10
-138.6979578107
 20
-62.1434624665
 30
0.0
 11
-138.9770893766
 21
-62.1414851962
 31
0.0
  0
LINE
  5
209
330
1F
100
AcDbEntity
  8
0
  6
Continuous
 62
     7
370
    15
100
AcDbLine
 10
-138.6979578107
 20
-62.1434624665
 30
0.0
 11
-136.2830758666
 21
-66.357811934
 31
0.0
  0
LINE
  5
20A
330
1F
100
AcDbEntity
  8
0
  6
Continuous
 62
     7
370
    15
100
AcDbLine
 10
-156.1594950753
 20
-127.098762935
 30
0.0
 11
-156.4386266412
 21
-127.0967856647
 31
0.0
  0
LINE
  5
20B
330
1F
100
AcDbEntity
  8
0
  6
Continuous
 62
     7
370
    15
100
AcDbLine
 10
-153.7217538151
 20
-122.895005822
 30
0.0
 11
-156.1594950753
 21
-127.098762935
 31
0.0
  0
LINE
  5
20C
330
1F
100
AcDbEntity
  8
0
  6
Continuous
 62
     7
370
    15
100
AcDbLine
 10
-156.0172577875
 20
-72.0989485965
 30
0.0
 11
-156.2963893534
 21
-72.0969713263
 31
0.0
  0
LINE
  5
20D
330
1F
100
AcDbEntity
  8
0
  6
Continuous
 62
     7
370
    15
100
AcDbLine
 10
-156.0172577875
 20
-72.0989485965
 30
0.0
 11
-153.6023758434
 21
-76.313298064
 31
0.0
  0
LINE
  5
20E
330
1F
100
AcDbEntity
  8
0
  6
Continuous
 62
     7
370
    15
100
AcDbLine
 10
-173.427072402
 20
-117.0543165783
 30
0.0
 11
-173.7062039679
 21
-117.0523393081
 31
0.0
  0
LINE
  5
20F
330
1F
100
AcDbEntity
  8
0
  6
Continuous
 62
     7
370
    15
100
AcDbLine
 10
-170.9893311418
 20
-112.8505594654
 30
0.0
 11
-173.427072402
 21
-117.0543165783
 31
0.0
  0
LINE
  5
210
330
1F
100
AcDbEntity
  8
0
  6
Continuous
 62
     7
370
    15
100
AcDbLine
 10
-173.3365577643
 20
-82.0544347266
 30
0.0
 11
-173.6156893302
 21
-82.0524574564
 31
0.0
  0
LINE
  5
211
330
1F
100
AcDbEntity
  8
0
  6
Continuous
 62
     7
370
    15
100
AcDbLine
 10
-173.3365577643
 20
-82.0544347266
 30
0.0
 11
-170.9216758203
 21
-86.2687841941
 31
0.0
  0
ARC
  5
218
330
1F
100
AcDbEntity
  8
0
  6
Continuous
 62
     7
370
    15
100
AcDbCircle
 10
-88.3407299542
 20
-99.7731758808
 30
0.0
 40
12.50017419588196
100
AcDbArc
 50
90.302700774
 51
268.8855863362
  0
ENDSEC
  0
SECTION
  2
OBJECTS
  0
DICTIONARY
  5
C
330
0
100
AcDbDictionary
281
     1
  3
ACAD_GROUP
350
D
  3
ACAD_LAYOUT
350
1A
  3
ACAD_MLINESTYLE
350
17
  3
ACAD_PLOTSETTINGS
350
19
  3
ACAD_PLOTSTYLENAME
350
E
  3
ACAD_SCALELIST
350
47
  0
DICTIONARY
  5
D
102
{ACAD_REACTORS
330
C
102
}
330
C
100
AcDbDictionary
281
     1
  0
DICTIONARY
  5
1A
102
{ACAD_REACTORS
330
C
102
}
330
C
100
AcDbDictionary
281
     1
  3
Layout1
350
1E
  3
Layout2
350
26
  3
Model
350
22
  0
DICTIONARY
  5
17
102
{ACAD_REACTORS
330
C
102
}
330
C
100
AcDbDictionary
281
     1
  3
Standard
350
18
  0
DICTIONARY
  5
19
102
{ACAD_REACTORS
330
C
102
}
330
C
100
AcDbDictionary
281
     1
  0
ACDBDICTIONARYWDFLT
  5
E
102
{ACAD_REACTORS
330
C
102
}
330
C
100
AcDbDictionary
281
     1
  3
Normal
350
F
100
AcDbDictionaryWithDefault
340
F
  0
DICTIONARY
  5
47
102
{ACAD_REACTORS
330
C
102
}
330
C
100
AcDbDictionary
281
     1
  3
A0
350
48
  3
A1
350
49
  3
A2
350
4A
  3
A3
350
4B
  3
A4
350
4C
  3
A5
350
4D
  3
A6
350
4E
  3
A7
350
4F
  3
A8
350
50
  3
A9
350
51
  3
B0
350
52
  3
B1
350
53
  3
B2
350
54
  3
B3
350
55
  3
B4
350
56
  3
B5
350
57
  3
B6
350
58
  3
B7
350
59
  3
B8
350
5A
  3
B9
350
5B
  3
C0
350
5C
  3
C1
350
5D
  3
C2
350
5E
  3
C3
350
5F
  3
C4
350
60
  3
C5
350
61
  3
C6
350
62
  3
C7
350
63
  3
C8
350
64
  3
C9
350
65
  3
D0
350
66
  3
D1
350
67
  3
D2
350
68
  0
LAYOUT
  5
1E
102
{ACAD_REACTORS
330
1A
102
}
330
1A
100
AcDbPlotSettings
  1

  2
none_device
  4

  6

 40
0.0
 41
0.0
 42
0.0
 43
0.0
 44
0.0
 45
0.0
 46
0.0
 47
0.0
 48
0.0
 49
0.0
140
0.0
141
0.0
142
1.0
143
1.0
 70
   688
 72
     1
 73
     0
 74
     5
  7

 75
    16
147
1.0
148
0.0
149
0.0
100
AcDbLayout
  1
Layout1
 70
     1
 71
     1
 10
0.0
 20
0.0
 11
420.0
 21
297.0
 12
0.0
 22
0.0
 32
0.0
 14
1.0000000000E+20
 24
1.0000000000E+20
 34
1.0000000000E+20
 15
-1.0000000000E+20
 25
-1.0000000000E+20
 35
-1.0000000000E+20
146
0.0
 13
0.0
 23
0.0
 33
0.0
 16
1.0
 26
0.0
 36
0.0
 17
0.0
 27
1.0
 37
0.0
 76
     0
330
1B
  0
LAYOUT
  5
26
102
{ACAD_REACTORS
330
1A
102
}
330
1A
100
AcDbPlotSettings
  1

  2
none_device
  4

  6

 40
0.0
 41
0.0
 42
0.0
 43
0.0
 44
0.0
 45
0.0
 46
0.0
 47
0.0
 48
0.0
 49
0.0
140
0.0
141
0.0
142
1.0
143
1.0
 70
   688
 72
     1
 73
     0
 74
     5
  7

 75
    16
147
1.0
148
0.0
149
0.0
100
AcDbLayout
  1
Layout2
 70
     1
 71
     2
 10
0.0
 20
0.0
 11
0.0
 21
0.0
 12
0.0
 22
0.0
 32
0.0
 14
0.0
 24
0.0
 34
0.0
 15
0.0
 25
0.0
 35
0.0
146
0.0
 13
0.0
 23
0.0
 33
0.0
 16
1.0
 26
0.0
 36
0.0
 17
0.0
 27
1.0
 37
0.0
 76
     0
330
23
  0
LAYOUT
  5
22
102
{ACAD_REACTORS
330
1A
102
}
330
1A
100
AcDbPlotSettings
  1

  2
none_device
  4
ANSI_A_(11.00_x_8.50_Inches)
  6

 40
6.35
 41
19.05
 42
6.35000508
 43
19.05000254
 44
279.4
 45
215.9
 46
240.9374627979
 47
195.6847152952
 48
0.0
 49
0.0
140
0.0
141
0.0
142
0.0420569054
143
1.0
 70
  1696
 72
     0
 73
     0
 74
     0
  7

 75
     0
147
0.0179189148
148
-1300.4909072572
149
0.0
100
AcDbLayout
  1
Model
 70
     1
 71
     0
 10
0.0
 20
0.0
 11
420.0
 21
297.0
 12
0.0
 22
0.0
 32
0.0
 14
-203.9244642897
 24
-200.0057450183
 34
0.0
 15
2.4960928652
 25
0.0803031166
 35
0.0
146
0.0
 13
0.0
 23
0.0
 33
0.0
 16
1.0
 26
0.0
 36
0.0
 17
0.0
 27
1.0
 37
0.0
 76
     0
330
1F
331
29
  0
MLINESTYLE
  5
18
102
{ACAD_REACTORS
330
17
102
}
330
17
100
AcDbMlineStyle
  2
Standard
 70
     0
  3

 62
   256
 51
90.0
 52
90.0
 71
     2
 49
0.5
 62
   256
  6
BYLAYER
 49
-0.5
 62
   256
  6
BYLAYER
  0
ACDBPLACEHOLDER
  5
F
102
{ACAD_REACTORS
330
E
102
}
330
E
  0
SCALE
  5
48
102
{ACAD_REACTORS
330
47
102
}
330
47
100
AcDbScale
 70
     0
300
1:1
140
1.0
141
1.0
290
     1
  0
SCALE
  5
49
102
{ACAD_REACTORS
330
47
102
}
330
47
100
AcDbScale
 70
     0
300
1:2
140
1.0
141
2.0
290
     0
  0
SCALE
  5
4A
102
{ACAD_REACTORS
330
47
102
}
330
47
100
AcDbScale
 70
     0
300
1:4
140
1.0
141
4.0
290
     0
  0
SCALE
  5
4B
102
{ACAD_REACTORS
330
47
102
}
330
47
100
AcDbScale
 70
     0
300
1:5
140
1.0
141
5.0
290
     0
  0
SCALE
  5
4C
102
{ACAD_REACTORS
330
47
102
}
330
47
100
AcDbScale
 70
     0
300
1:8
140
1.0
141
8.0
290
     0
  0
SCALE
  5
4D
102
{ACAD_REACTORS
330
47
102
}
330
47
100
AcDbScale
 70
     0
300
1:10
140
1.0
141
10.0
290
     0
  0
SCALE
  5
4E
102
{ACAD_REACTORS
330
47
102
}
330
47
100
AcDbScale
 70
     0
300
1:16
140
1.0
141
16.0
290
     0
  0
SCALE
  5
4F
102
{ACAD_REACTORS
330
47
102
}
330
47
100
AcDbScale
 70
     0
300
1:20
140
1.0
141
20.0
290
     0
  0
SCALE
  5
50
102
{ACAD_REACTORS
330
47
102
}
330
47
100
AcDbScale
 70
     0
300
1:30
140
1.0
141
30.0
290
     0
  0
SCALE
  5
51
102
{ACAD_REACTORS
330
47
102
}
330
47
100
AcDbScale
 70
     0
300
1:40
140
1.0
141
40.0
290
     0
  0
SCALE
  5
52
102
{ACAD_REACTORS
330
47
102
}
330
47
100
AcDbScale
 70
     0
300
1:50
140
1.0
141
50.0
290
     0
  0
SCALE
  5
53
102
{ACAD_REACTORS
330
47
102
}
330
47
100
AcDbScale
 70
     0
300
1:100
140
1.0
141
100.0
290
     0
  0
SCALE
  5
54
102
{ACAD_REACTORS
330
47
102
}
330
47
100
AcDbScale
 70
     0
300
2:1
140
2.0
141
1.0
290
     0
  0
SCALE
  5
55
102
{ACAD_REACTORS
330
47
102
}
330
47
100
AcDbScale
 70
     0
300
4:1
140
4.0
141
1.0
290
     0
  0
SCALE
  5
56
102
{ACAD_REACTORS
330
47
102
}
330
47
100
AcDbScale
 70
     0
300
8:1
140
8.0
141
1.0
290
     0
  0
SCALE
  5
57
102
{ACAD_REACTORS
330
47
102
}
330
47
100
AcDbScale
 70
     0
300
10:1
140
10.0
141
1.0
290
     0
  0
SCALE
  5
58
102
{ACAD_REACTORS
330
47
102
}
330
47
100
AcDbScale
 70
     0
300
100:1
140
100.0
141
1.0
290
     0
  0
SCALE
  5
59
102
{ACAD_REACTORS
330
47
102
}
330
47
100
AcDbScale
 70
     0
300
1/128" = 1'-0"
140
0.0078125
141
12.0
290
     0
  0
SCALE
  5
5A
102
{ACAD_REACTORS
330
47
102
}
330
47
100
AcDbScale
 70
     0
300
1/64" = 1'-0"
140
0.015625
141
12.0
290
     0
  0
SCALE
  5
5B
102
{ACAD_REACTORS
330
47
102
}
330
47
100
AcDbScale
 70
     0
300
1/32" = 1'-0"
140
0.03125
141
12.0
290
     0
  0
SCALE
  5
5C
102
{ACAD_REACTORS
330
47
102
}
330
47
100
AcDbScale
 70
     0
300
1/16" = 1'-0"
140
0.0625
141
12.0
290
     0
  0
SCALE
  5
5D
102
{ACAD_REACTORS
330
47
102
}
330
47
100
AcDbScale
 70
     0
300
3/32" = 1'-0"
140
0.09375
141
12.0
290
     0
  0
SCALE
  5
5E
102
{ACAD_REACTORS
330
47
102
}
330
47
100
AcDbScale
 70
     0
300
1/8" = 1'-0"
140
0.125
141
12.0
290
     0
  0
SCALE
  5
5F
102
{ACAD_REACTORS
330
47
102
}
330
47
100
AcDbScale
 70
     0
300
3/16" = 1'-0"
140
0.1875
141
12.0
290
     0
  0
SCALE
  5
60
102
{ACAD_REACTORS
330
47
102
}
330
47
100
AcDbScale
 70
     0
300
1/4" = 1'-0"
140
0.25
141
12.0
290
     0
  0
SCALE
  5
61
102
{ACAD_REACTORS
330
47
102
}
330
47
100
AcDbScale
 70
     0
300
3/8" = 1'-0"
140
0.375
141
12.0
290
     0
  0
SCALE
  5
62
102
{ACAD_REACTORS
330
47
102
}
330
47
100
AcDbScale
 70
     0
300
1/2" = 1'-0"
140
0.5
141
12.0
290
     0
  0
SCALE
  5
63
102
{ACAD_REACTORS
330
47
102
}
330
47
100
AcDbScale
 70
     0
300
3/4" = 1'-0"
140
0.75
141
12.0
290
     0
  0
SCALE
  5
64
102
{ACAD_REACTORS
330
47
102
}
330
47
100
AcDbScale
 70
     0
300
1" = 1'-0"
140
1.0
141
12.0
290
     0
  0
SCALE
  5
65
102
{ACAD_REACTORS
330
47
102
}
330
47
100
AcDbScale
 70
     0
300
1-1/2" = 1'-0"
140
1.5
141
12.0
290
     0
  0
SCALE
  5
66
102
{ACAD_REACTORS
330
47
102
}
330
47
100
AcDbScale
 70
     0
300
3" = 1'-0"
140
3.0
141
12.0
290
     0
  0
SCALE
  5
67
102
{ACAD_REACTORS
330
47
102
}
330
47
100
AcDbScale
 70
     0
300
6" = 1'-0"
140
6.0
141
12.0
290
     0
  0
SCALE
  5
68
102
{ACAD_REACTORS
330
47
102
}
330
47
100
AcDbScale
 70
     0
300
1'-0" = 1'-0"
140
12.0
141
12.0
290
     0
  0
ENDSEC
  0
EOF
